<svg xmlns="http://www.w3.org/2000/svg" viewBox="0 0 96 96" role="img" aria-label="Fortis Ready mark">
  <defs>
    <style>
      .accent { fill: #3d8bfd; }
    </style>
  </defs>
  <!-- Shield outline -->
  <path class="accent" d="M48 6c-6.8 4.6-15.4 7.8-26 9.6v28.9c0 18.1 11.6 29.9 26 36.9 14.4-7 26-18.8 26-36.9V15.6C63.4 13.8 54.8 10.6 48 6zM68 44.5c0 13.6-8.3 22.5-20 28.1-11.7-5.6-20-14.5-20-28.1V22.7c8.2-1.8 15.3-4.5 20-7.4 4.7 2.9 11.8 5.6 20 7.4v21.8z"/>
  <!-- Stylized FR inside -->
  <path class="accent" d="M32 34h18v6H38v8h-6V34zM46 34h18v6H52v6l-6 3.8V34z"/>
</svg>

